<?xml version="1.0" encoding="UTF-8" standalone="no"?>
<!-- Created with Inkscape (http://www.inkscape.org/) -->

<svg
   version="1.1"
   id="svg9"
   width="637"
   height="320"
   viewBox="0 0 637 320"
   xmlns="http://www.w3.org/2000/svg"
   xmlns:svg="http://www.w3.org/2000/svg">
  <defs
     id="defs13" />
  <g
     id="g15">
    <g
       id="g1247"
       style="fill:#000000;fill-opacity:1;stroke:#000000;stroke-opacity:1">
      <g
         id="g1268"
         style="fill:#ffffff;fill-opacity:1;stroke:#ffffff;stroke-opacity:1">
        <path
           style="fill:#ffffff;fill-opacity:1;stroke:#ffffff;stroke-opacity:1"
           d="m 35.042788,219.99084 c -3.179986,-46.96689 31.538086,-75.04423 59.183373,-79.43033 57.264219,-7.41295 67.151639,22.19385 68.820139,34.26406 2.47012,30.89025 -25.20842,57.9753 -51.68811,49.44927 -30.604369,-10.16632 -33.089116,-44.8361 -3.63502,-55.28973 -74.943429,-8.36959 -71.669199,102.52632 2.14149,98.72342 76.7679,-3.95527 67.38626,-180.42453 93.51711,-206.093494 26.81028,-26.336386 54.17175,29.244427 85.23452,-19.173327 3.0001,1.929681 3.9982,16.25778 -13.93648,26.866137 -3.64632,2.156794 -22.72855,7.853244 -37.03398,0.09042 -36.78223,-19.959821 -35.79044,37.169344 -41.42984,71.941984 -1.34794,5.76652 -3.18661,109.96762 -66.44363,139.78178 -52.853859,19.77821 -94.188005,-27.03289 -94.729572,-61.13019 z"
           id="path242" />
        <ellipse
           style="fill:#ffffff;fill-opacity:1;stroke:#ffffff;stroke-width:1.08262;stroke-opacity:1"
           id="path1148"
           ry="10.90636"
           rx="8.2864962"
           cy="69.425652"
           cx="194.64076"
           transform="matrix(0.95405217,0.29964056,-0.27005835,0.96284396,0,0)" />
        <ellipse
           style="fill:#ffffff;fill-opacity:1;stroke:#ffffff;stroke-width:1.08845;stroke-opacity:1"
           id="ellipse1213-7"
           ry="11.227068"
           rx="8.1367054"
           cy="36.704006"
           cx="190.7878"
           transform="matrix(0.9532687,0.30212378,-0.25188146,0.9677581,0,0)" />
        <ellipse
           style="fill:#ffffff;fill-opacity:1;stroke:#ffffff;stroke-width:1.08621;stroke-opacity:1"
           id="ellipse1213-74"
           ry="11.113475"
           rx="8.1860151"
           cy="-42.255238"
           cx="193.373"
           transform="matrix(0.86303243,0.50514851,-0.44859011,0.89373761,0,0)" />
        <ellipse
           style="fill:#ffffff;fill-opacity:1;stroke:#ffffff;stroke-width:1.07932;stroke-opacity:1"
           id="ellipse1213-4"
           ry="11.231938"
           rx="7.9973316"
           cy="-205.06834"
           cx="74.010132"
           transform="matrix(0.14499029,0.98943308,-0.98666707,0.16275163,0,0)" />
      </g>
      <g
         aria-label="Melodia Shop"
         transform="matrix(1.1206233,0.00625025,-0.00497696,0.89233277,-1.7521394,3.1149144)"
         id="text988"
         style="font-size:125.942px;font-family:flashback;-inkscape-font-specification:flashback;opacity:0.91;fill:#ffffff;fill-opacity:1;stroke:#000000;stroke-width:0.714389;stroke-miterlimit:5.7;stroke-opacity:1">
        <path
           id="path1384"
           style="font-size:125.942px;font-family:flashback;-inkscape-font-specification:flashback;opacity:0.91;fill:#ffffff;fill-opacity:1;stroke:#ffffff;stroke-width:1.00432;stroke-miterlimit:5.7;stroke-opacity:1"
           d="m 367.60611,210.05725 c -3.36475,0.28353 -7.09842,5.15377 -7.81075,6.4788 -1.84675,3.43522 -0.60207,34.15237 -0.96896,40.83201 -3.6993,5.70058 -10.78529,32.78392 -1.38739,39.62455 2.49852,1.81865 8.18195,-1.19031 9.54454,-12.45319 0.86526,-14.45661 0.15195,-19.97187 -0.12558,-34.16169 3.27393,-9.78203 7.53629,-18.29465 12.34509,-22.32672 3.79104,0.43518 0.69532,7.18909 -0.44788,13.35254 -6.44867,-0.35341 -13.09902,15.39646 -8.14199,19.01848 6.07723,4.44052 12.84956,-10.49403 14.59753,-19.04618 6.37945,0.38884 12.47805,-7.42109 11.1065,-11.20339 -0.3534,-0.97457 -7.72021,9.60685 -10.90178,7.85092 2.69581,-11.36766 -5.28279,-13.48393 -5.74774,-13.27193 -2.36648,1.07901 -5.97464,1.2936 -13.30968,19.01309 -0.33929,-6.17124 -0.38648,-9.82495 -0.53366,-16.16482 0.11161,-2.13439 7.48723,-14.29093 4.01025,-16.90582 -0.69553,-0.52308 -1.45202,-0.70208 -2.2285,-0.63665 z m 0.24416,2.78024 c 0.0968,-0.003 0.19752,-0.001 0.30154,0.004 1.46136,2.17766 -0.96582,8.31163 -3.08495,10.58907 0.16171,-6.21253 -0.21891,-10.5028 2.78341,-10.59352 z m 10.1233,30.74281 c -0.48196,3.21729 -2.39225,11.53507 -5.98351,14.08954 -3.00744,-2.50344 2.11142,-13.13552 5.98351,-14.08954 z m -18.41068,17.93473 c 0.51981,6.38306 2.58944,31.37846 -1.15437,32.83549 -7.83513,-4.64546 -0.70225,-30.22153 1.15437,-32.83549 z" />
        <path
           d="m 302.84822,257.87037 c 1.71571,-9.15876 10.09577,-33.4979 17.68415,-28.90067 6.67566,6.43104 -1.47429,22.43643 1.56597,28.12615 4.1624,-7.78453 8.17183,-16.02584 9.71286,-17.98578 -15.57316,44.56287 -19.3911,21.76197 -16.2909,-6.42544 -10.02303,12.21252 -10.31386,41.36568 -19.61103,34.33544 -1.29009,-26.99472 3.30553,-73.56351 16.68575,-81.31168 1.45081,-0.76513 6.10886,-0.62311 7.19807,0.25534 7.27504,11.52082 -6.80365,31.95833 -13.56645,39.77752 -0.51274,8.40831 -2.02736,14.53832 -3.37842,32.12912 z m 13.93282,-70.41419 c -6.68758,7.90157 -8.17816,23.03422 -10.46889,34.83019 4.46113,-6.57035 18.41872,-27.15752 10.46889,-34.83019 z"
           id="path1380"
           style="font-size:125.942px;font-family:flashback;-inkscape-font-specification:flashback;opacity:0.91;fill:#ffffff;fill-opacity:1;stroke:#ffffff;stroke-width:0.848419;stroke-miterlimit:5.7;stroke-opacity:1" />
        <path
           d="m 267.13618,205.13849 c -1.11776,-12.98491 30.63276,-34.94444 30.79392,-2.46126 -2.5454,-19.70706 -23.0652,-15.05283 -25.72481,-0.34121 -1.25768,6.95682 16.94982,13.93497 20.4683,24.23082 5.43031,15.89024 -4.65875,38.37496 -16.21263,43.05538 -23.91463,2.98041 -12.80216,-34.90001 0.48207,-31.31285 -13.4634,1.66752 -17.27545,37.49813 0.71945,25.91463 18.05463,-33.40084 -8.1528,-39.17258 -10.5263,-59.08551 z"
           id="path1378"
           style="fill:#ffffff;fill-opacity:1;stroke:#ffffff;stroke-width:0.85351;stroke-opacity:1" />
        <path
           d="m 239.01371,142.68706 c 1.51767,-6.47824 5.06346,-41.21321 13.99295,-40.717 6.27371,3.44023 1.07867,27.82658 0.0768,36.59665 3.95703,-11.47503 7.31402,-34.79818 16.15152,-45.64195 2.26544,-2.391005 4.29136,-3.216739 6.07777,-2.4772 1.7864,0.739557 2.85041,2.827481 3.19203,6.263772 0.20709,1.750162 0.17144,3.756508 -0.10695,6.019028 -3.88665,23.28049 -6.90268,53.73874 -6.87985,56.1817 0.009,0.97238 0.81095,5.8954 1.83847,6.69323 1.65018,1.28129 -0.99198,1.77591 -5.3665,-1.20443 -5.23796,-3.5686 -1.94838,-25.57528 0.57738,-38.99047 0.54606,-2.96693 0.97513,-5.20102 1.28722,-6.70227 0.91577,-5.80445 1.99127,-11.10619 2.75606,-16.78956 2.40595,-12.828341 -0.0171,-11.080789 -5.04686,-1.72934 -6.82616,12.69147 -13.84887,41.3301 -14.8842,47.74778 -0.54649,1.60803 -5.57392,1.3366 -6.3497,1.5929 2.17497,-14.28276 9.20692,-44.73251 5.32025,-44.09134 -2.43499,-0.81703 -7.18263,23.20232 -9.60266,32.50519 -2.66294,12.09555 -3.10484,33.76994 -12.4668,27.3291 3.122,-13.23545 3.61308,-37.32094 4.29967,-49.95938 0.87771,-3.2492 3.41634,-3.97281 5.24675,-4.04893 2.19144,-0.85264 -0.22882,22.52736 -0.11334,31.42252 z"
           id="path1364"
           style="fill:#ffffff;fill-opacity:1;stroke:#ffffff;stroke-width:0.741029;stroke-opacity:1" />
        <path
           d="m 295.80349,147.14081 c -1.19435,2.26973 -2.6001,4.07649 -4.21725,5.42028 -1.54679,1.34388 -3.12921,2.05677 -4.74728,2.13867 -1.54771,0.082 -2.99047,-0.63503 -4.32828,-2.15112 -1.33781,-1.51608 -2.32459,-4.04118 -2.96034,-7.5753 -0.28239,-1.34639 -0.4242,-2.86084 -0.42543,-4.54335 -10e-4,-1.76663 0.0677,-3.57522 0.20713,-5.42577 1.00052,-5.08079 2.74625,-9.10401 4.69207,-11.05178 6.2646,-6.27087 11.10746,-5.06246 9.72328,3.53628 -1.00381,5.46129 -3.31719,8.02417 -7.15469,9.05314 -0.34919,3.53277 -0.61004,6.47987 -0.78117,9.14985 -0.92038,10.71843 4.93937,6.74346 8.51461,0.43757 1.19454,-2.01736 2.21316,-4.07703 3.05587,-6.179 0.913,-2.186 1.58016,-3.82552 2.00149,-4.91857 0.0701,-0.33641 0.24577,-0.63061 0.527,-0.8826 0.28123,-0.25198 0.52738,-0.37783 0.73843,-0.37754 0.28142,3.9e-4 0.45743,0.16888 0.52802,0.50548 0.0705,0.25247 5.5e-4,0.75712 -0.20995,1.51395 -1.19387,2.94275 -2.1771,5.2969 -2.9497,7.06246 -0.77267,1.68145 -1.51034,3.11056 -2.21301,4.28735 z m -8.95867,-12.89755 c 3.49468,-1.3084 6.10259,-6.53256 4.82745,-10.87333 -1.73857,-2.07396 -4.33828,6.86144 -4.82745,10.87333 z"
           id="path1366"
           style="fill:#ffffff;fill-opacity:1;stroke:#ffffff;stroke-width:0.654576;stroke-opacity:1" />
        <path
           d="m 307.65929,125.96035 c 7.41621,-6.18239 13.77962,-28.922464 8.71512,-34.255771 -3.69036,1.018681 -8.15523,27.772521 -8.71512,34.255771 z m -8.38298,-2.1009 c 0.26215,-4.17575 0.98664,-7.61652 1.55445,-11.39787 1.9557,-10.02273 7.4781,-25.702276 16.47058,-22.244337 7.65942,2.945329 -1.87469,33.840817 -10.21363,39.248307 -0.37441,8.27896 -2.54618,24.05544 -1.3946,25.91183 2.24859,3.62481 8.9514,-14.56705 10.64846,-20.19027 0.5675,-1.91726 1.73625,-2.78228 2.27923,-2.27794 -2.02121,6.93236 -4.57997,17.76195 -10.35946,24.04783 -9.49967,10.33203 -9.63031,-20.77099 -8.98503,-33.09755 z"
           id="path1368"
           style="fill:#ffffff;fill-opacity:1;stroke:#ffffff;stroke-width:0.736788;stroke-opacity:1" />
        <path
           d="m 367.65182,126.06666 c -0.64943,11.28032 -5.28801,43.01382 -3.74531,43.49365 3.43013,1.06687 11.87732,-31.83946 18.07413,-33.29953 -6.19875,7.42828 -10.86748,32.7886 -17.80957,35.45126 -7.54256,2.89298 -6.19423,-20.99651 -6.32381,-29.03146 -5.79622,8.87384 -9.05467,13.62757 -12.27827,12.06318 -6.51948,-3.16386 -4.95177,-21.52619 -0.1467,-26.52503 7.46932,-7.77051 10.79865,-2.93994 10.90461,-1.56538 0.24935,3.23481 -0.0309,6.91296 -3.97052,9.31303 -0.48984,-1.21012 2.08026,-3.71737 2.21654,-6.22433 0.0928,-1.7078 0.36083,-6.28815 -3.47706,0.77268 -3.36194,6.1852 -6.91418,19.68782 -3.46273,22.16539 2.44237,-0.26699 7.35121,-7.77943 9.68342,-14.27015 0.58994,-4.48004 4.54696,-25.11462 5.62797,-29.30882 1.08103,-4.2895 2.30932,-8.00713 3.68485,-11.152882 1.47377,-3.241093 3.04566,-5.719671 4.71567,-7.435733 1.76823,-1.716074 6.84659,-3.154161 8.08398,-1.027755 3.48377,5.98672 -3.56981,24.51589 -11.7772,36.58188 z m -0.0185,-2.68788 c 6.51514,-8.36343 13.83209,-30.452149 10.4818,-31.72974 -4.2482,-1.174792 -9.21032,18.83328 -10.4818,31.72974 z"
           id="path1372"
           style="fill:#ffffff;fill-opacity:1;stroke:#ffffff;stroke-width:0.823278;stroke-opacity:1" />
        <path
           d="m 388.1875,153.88985 c -1.89606,1.78649 -6.1396,2.09997 -7.35024,-0.0428 -4.67076,-5.68213 -4.55855,-29.64039 5.655,-28.45434 3.85732,2.52207 -0.5343,8.79843 -1.07273,12.30026 -0.85859,5.58414 -2.00277,13.68644 -0.80399,14.83104 3.51144,3.35274 8.02461,-9.45998 11.02106,-13.17205 -0.41981,1.17545 -0.24967,2.21239 -0.8374,3.89162 -1.63033,4.26353 -4.35157,8.5167 -6.6117,10.64623 z m -2.25215,-31.87403 c -4.37883,-2.01519 0.493,-8.97632 2.87606,-7.45972 1.79632,1.14321 -0.63509,8.49104 -2.87606,7.45972 z"
           id="path1374"
           style="fill:#ffffff;fill-opacity:1;stroke:#ffffff;stroke-opacity:1" />
        <path
           d="m 399.62852,149.32404 c 2.30226,4.69512 12.49825,-22.39179 10.72044,-22.28536 -5.49008,0.32868 -11.81931,20.04437 -10.72044,22.28536 z m -1.47035,2.02904 c -2.73562,-2.49571 -2.57638,-7.74905 -2.32837,-11.37179 0.17103,-2.34604 0.60289,-4.64837 1.29559,-6.90699 1.76801,-5.78586 4.53574,-8.60494 8.82,-10.06456 1.24504,-0.30026 2.97013,-0.21647 4.19322,0.41251 1.22309,0.62898 1.33381,2.94828 2.0396,4.16906 0.23838,-1.85019 0.78475,-4.60752 2.85944,-4.50342 1.58335,0.0794 3.15014,0.31783 3.80562,1.71714 -1.30388,2.89108 -2.79196,5.40502 -3.72589,8.82052 -1.55577,5.68497 -3.54221,16.57995 -2.08239,17.44677 5.80424,3.44647 12.73925,-15.05968 13.90318,-18.46509 0.59621,0.0999 1.01154,1.37154 0.74848,2.43001 -5.75582,17.46837 -12.35049,20.79589 -17.98384,17.83929 -1.87797,-1.6696 -1.95277,-5.68845 -2.02352,-10.85473 -2.56256,8.16498 -7.30443,11.50438 -9.52112,9.33128 z"
           id="path1376"
           style="fill:#ffffff;fill-opacity:1;stroke:#ffffff;stroke-width:0.676448;stroke-opacity:1" />
        <path
           id="path1223"
           style="fill:#ffffff;fill-opacity:1;stroke:#ffffff;stroke-width:0.820268;stroke-opacity:1"
           d="m 328.3131,116.37448 c -14.61836,0.14446 -17.70198,41.37121 -4.54927,43.87981 6.99231,-1.54151 9.29901,-8.7717 11.05499,-16.52178 5.55722,-1.42381 6.90002,-5.82536 7.20518,-7.86688 0.0618,-0.41354 -7.609,10.0153 -6.01717,4.19015 1.89521,-6.9353 -0.74636,-11.73805 -4.48231,-10.11143 -6.33628,2.75879 -1.43883,13.64558 1.69794,13.03108 -4.34321,12.36428 -6.78079,13.38942 -7.748,13.15415 -4.94962,-1.20396 -2.93636,-25.89708 2.02456,-34.68892 2.35029,-4.16526 6.61847,-1.27526 2.21867,7.05642 7.10513,-1.79053 5.95032,-12.17 -1.40459,-12.1226 z m 4.29882,15.49495 c 1.61847,0.006 2.49678,3.43649 1.43748,8.9355 -4.1119,-2.93028 -4.80539,-7.46539 -2.06597,-8.78007 0.21883,-0.10503 0.42973,-0.15617 0.62849,-0.15543 z" />
        <path
           id="path1382"
           style="font-size:125.942px;font-family:flashback;-inkscape-font-specification:flashback;opacity:0.91;fill:#ffffff;fill-opacity:1;stroke:#ffffff;stroke-width:0.820268;stroke-miterlimit:5.7;stroke-opacity:1"
           d="m 344.20856,213.76259 c -8.4877,0.0839 -13.08682,14.01735 -12.8771,26.18049 0.15149,8.78544 2.81183,16.64726 8.32783,17.69932 7.48264,-1.77635 9.29901,-8.7717 11.05499,-16.52178 5.55721,-1.42381 7.95119,-7.01099 8.01217,-9.08675 0.0179,-0.61042 -8.41425,11.23516 -6.82242,5.41001 1.89521,-6.9353 -0.7481,-11.73804 -4.48405,-10.11142 -6.33628,2.7588 -1.43883,13.64558 1.69793,13.03108 -4.3432,12.36429 -6.78078,13.38942 -7.74799,13.15415 -4.94962,-1.20396 -2.93636,-25.89708 2.02456,-34.68892 2.35029,-4.16526 6.62021,-1.27527 2.22041,7.05641 7.10513,-1.79054 5.94858,-12.16999 -1.40633,-12.12259 z m 4.07449,15.60815 c 1.68135,-0.0686 2.37918,4.47089 1.61581,8.66722 -3.55537,-2.08568 -4.80436,-7.23339 -2.06495,-8.54807 0.15631,-0.075 0.30665,-0.11335 0.44914,-0.11915 z" />
      </g>
    </g>
  </g>
</svg>
